/* XPM */
static const char *_1765142037[] = {
/* columns rows colors chars-per-pixel */
"71 54 191 2 ",
"   c #000000",
".  c #0A0102",
"X  c #010902",
"o  c #0C0A03",
"O  c #02010A",
"+  c #09010A",
"@  c gray3",
"#  c #120201",
"$  c #10030A",
"%  c #10090B",
"&  c #1C0404",
"*  c #020212",
"=  c #080111",
"-  c #160C17",
";  c #270E00",
":  c #3C0304",
">  c #370508",
",  c #3C0109",
"<  c #350F0E",
"1  c #3F140C",
"2  c #36130D",
"3  c #391512",
"4  c #3E121A",
"5  c #351917",
"6  c #2F2D00",
"7  c #2A260C",
"8  c #2C290B",
"9  c #302C09",
"0  c #312906",
"q  c #2E3806",
"w  c #2F3008",
"e  c #313101",
"r  c #3B3B02",
"t  c #3C360E",
"y  c #3C3B0B",
"u  c #373D0D",
"i  c #282117",
"p  c #282619",
"a  c #38271D",
"s  c #332C19",
"d  c #293217",
"f  c #3B3A13",
"g  c #36331B",
"h  c #3B3D1C",
"j  c #373215",
"k  c #333F2B",
"l  c #450000",
"z  c #490604",
"x  c #4B020E",
"c  c #470F0E",
"v  c #4B090F",
"b  c #48090A",
"n  c #5B0006",
"m  c #47150C",
"M  c #430B12",
"N  c #4D0C14",
"B  c #490D19",
"V  c #570F1A",
"C  c #5A0F13",
"Z  c #431313",
"A  c #4C1916",
"S  c #4B1316",
"D  c #561514",
"F  c #591814",
"G  c #5B151B",
"H  c #5B1B1B",
"J  c #52161A",
"K  c #69000B",
"L  c #730202",
"P  c #7D0200",
"I  c #7B030F",
"U  c #620D1A",
"Y  c #63161C",
"T  c #6C1D1D",
"R  c #651716",
"E  c #7A1D16",
"W  c #741B1C",
"Q  c #7B1B1F",
"!  c #46390B",
"~  c #413A06",
"^  c #572117",
"/  c #4C3B14",
"(  c #423D19",
")  c #413C12",
"_  c #6F251A",
"`  c #77221E",
"'  c #5A1621",
"]  c #5D1A23",
"[  c #670E20",
"{  c #631521",
"}  c #6C1B24",
"|  c #611F29",
" . c #6B1724",
".. c #7D1C21",
"X. c #721D2C",
"o. c #7C1E2B",
"O. c #741D23",
"+. c #7C1F31",
"@. c #5F2122",
"#. c #423B21",
"$. c #642122",
"%. c #712322",
"&. c #7A2322",
"*. c #752822",
"=. c #7C222C",
"-. c #722328",
";. c #7D2130",
":. c #7E2C30",
">. c #3E4317",
",. c #3D4629",
"<. c #424007",
"1. c #43430D",
"2. c #4B4B0F",
"3. c #52470F",
"4. c #41510A",
"5. c #5C5B01",
"6. c #58560D",
"7. c #424312",
"8. c #4D4D15",
"9. c #4F4A1A",
"0. c #514B14",
"q. c #544E1D",
"w. c #5A4818",
"e. c #4F5610",
"r. c #495118",
"t. c #5E5D15",
"y. c #5E5E1A",
"u. c #65550A",
"i. c #625C14",
"p. c #655C1A",
"a. c #5F6207",
"s. c #5B6117",
"d. c #65780F",
"f. c #68730B",
"g. c #656016",
"h. c #6E6D13",
"j. c #6F7410",
"k. c #6D741A",
"l. c #707216",
"z. c #74731B",
"x. c #7C741E",
"c. c #757918",
"v. c #787917",
"b. c #474023",
"n. c #515020",
"m. c #484033",
"M. c #454432",
"N. c #465737",
"B. c #655A24",
"V. c #6E6F21",
"C. c #726E26",
"Z. c #7C6E24",
"A. c #746F2D",
"S. c #6D7726",
"D. c #747422",
"F. c #7D7523",
"G. c #74722A",
"H. c #7A752A",
"J. c #727A27",
"K. c #7D6F32",
"L. c #787633",
"P. c #800200",
"I. c #811E18",
"U. c #AF0001",
"Y. c #861D22",
"T. c #862222",
"R. c #896E1D",
"E. c #81403E",
"W. c #83483A",
"Q. c #837725",
"!. c #846F36",
"~. c #893F40",
"^. c #963B44",
"/. c #834344",
"(. c #8D4345",
"). c #8E474F",
"_. c #8D4A41",
"`. c #91444B",
"'. c #9D4345",
"]. c #6E8455",
"[. c #7E9871",
"{. c #9DA774",
"}. c #98B17A",
"|. c #A2A976",
" X c #9AA983",
".X c #A1A58A",
"XX c #B3BA84",
"oX c #A2C188",
"OX c #A2C198",
"+X c #F7FFF7",
"@X c #FFFBFB",
/* pixels */
"                                                    . X O X .     + O O . . +     =     O .   X                                               ",
"                                                  X .   .   @   O   +     O       = .   O .   .                                               ",
"                                                O X     .     O .   X X O     ,         + .   +                                               ",
"                                                O O   O . X     O   . . X . : . K , .   O   O O                                               ",
"                                                .     O O               O O   ].x # X X . . . .                                               ",
"                                                .     %   .     . *     . t   N.  d     .   X                                                 ",
"                                                  . X o .X. o O   O . p.u.a X . #.0 . X   O O O                                               ",
"                                                O .  X|.{.; @XO   t.6.9 X   . O   h O     . .                                                 ",
"                                                # }.{.L P XXO > n a.. . O O . O O l w   +   . X                                               ",
"                                                @ ,. Xz +XO L O   X O   O       O : g X O   .                                                 ",
"                                                # M.OX[.P.  I P.O . $ O X   ~ h . # o       .                                                 ",
"                                                o k m.oX@ Z.L ! o . . r >./ ) b p   O   . O                                                   ",
"                                                . - h   8.H.c.O % U.+ 1.f f . O . O O       O .                                               ",
"                                                    X t d.Z.>.  U.. b.  / 8   .   O O .   O O                                                 ",
"                                                O . O g.A.G.  . & k.j.3.O   O     .       O O                                                 ",
"                                                    ! 6.v.(   h 9.S.R.H.  O . O O .       O                                                   ",
"                                                O 7 B.i.l.  7.0.z.D.z.D.y + O                                                                 ",
"                                                  6 g.C.( . r A.F.z.D.D.r     X                                                               ",
"                                                X 7 5.9.1.. 8.L.h.G.l.L.8..   O                                                               ",
"                                                    j y.+ 1.2.l.H.z.e.. s.  O                                                                 ",
"                                                O O   e y n.. H.C.l.$ y     O                                                                 ",
"                                                O       8 i . D.D.q.. f . O X                                                                 ",
"                                                  O   O O e 1.. c.+ t e.O                                                                     ",
"                                                  O O   O . 7 J.z.O 7.k.    O                                                                 ",
"                                                      O     g u.0.O w.x.O X   O                                                               ",
"                                                    .   X   . p.v.  4.D.+ O .                                                                 ",
"                                                  O .   O O . B.k.O r.F.u   O .                                                               ",
"                                                  O       O s i.v.  !.l.u.q   O                                                               ",
"                                                            e 5.O Q.f.K.q.O . O                                                               ",
"                                                      O O 7 t.H.V.x.S.  # *.3 .                                                               ",
"                                                O     O   8 y.( / r O   W o.x O                                                               ",
"                                                O     O O 9 <.. O   O._ ).I.  m                                                               ",
"                                                .     .   . . J Y.$.`.W.&.G } 1   X .                                                         ",
"                                                  . .     B S H %.T.. ..Q . T } .                                                             ",
"                                                        . M H T &./.=.X X.Y @.T 4                                                             ",
"                                                .     .   . 2 T ` /.` . X m { D G         .                                                   ",
"                                                X           3 D W '.X.O O X H H } .       .                                                   ",
"                                                  . O X O . N H _.E.. O + . U H -.<           O                                               ",
"                                                    O O . . v %.E =.    O .   H F N     O                                                     ",
"                                                  . .       c %.*.W O     *   ] ^ }     .                                                     ",
"                                                . O   . X X M E E.  . O   .   O H R C   O X   .                                               ",
"                                                  O X   . . 4 R =.  O O   .   O { H m o O X . .                                               ",
"                                                .       O X @ A =..   O   .   O   A H   . $                                                   ",
"                                                .     .   . 5 ^.| .       .   O    .F J .     .                                               ",
"                                                O   .   . S z (.#   O           O   $.U     @ O                                               ",
"                                                O       . 1 b %.    . .         O ' H         O                                               ",
"                                                O   . O   Z ..=.X       X         X G     .                                                   ",
"                                                    . .   Z o.  . .               X U 4 O .                                                   ",
"                                                O   .   Z R `.O                 O   G D X . .                                                 ",
"                                                  . . . 5 :.. O                 +   . H V                                                     ",
"                                                O   X   N (.. X                     . J V G . O                                               ",
"                                                  . . o Z ;..                         ] Y   . O                                               ",
"                                                . @   , '   . .                 . X     ] v . O                                               ",
"                                                  .   N   .   X                   . .     . X O                                               "
};
