/* XPM */
static const char *attack___pitchfork_3_1765308452[] = {
/* columns rows colors chars-per-pixel */
"64 64 196 2 ",
"   c #000000",
".  c #0B0102",
"X  c #010901",
"o  c #000000",
"O  c #0A010C",
"+  c #000A0A",
"@  c #000000",
"#  c #110002",
"$  c #1F0100",
"%  c #1F1F00",
"&  c #020012",
"*  c #0B0112",
"=  c #100013",
"-  c #250302",
";  c #2C0201",
":  c #240801",
">  c #2C0902",
",  c #270008",
"<  c #2C020A",
"1  c #330102",
"2  c #3A0002",
"3  c #34010B",
"4  c #39030B",
"5  c #37090A",
"6  c #271C00",
"7  c #2B1C03",
"8  c #2B1A0D",
"9  c #310212",
"0  c #3A061C",
"q  c #1F260B",
"w  c #262306",
"e  c #2C2202",
"r  c #26210D",
"t  c #28200D",
"y  c #23280A",
"u  c #302200",
"i  c #5F0E00",
"p  c #5E1B00",
"a  c #6C0600",
"s  c #650E01",
"d  c #6C0C02",
"f  c #6C0D0A",
"g  c #650F0E",
"h  c #730501",
"j  c #740C02",
"k  c #7A0C01",
"l  c #73060B",
"z  c #790508",
"x  c #730B0B",
"c  c #790C0C",
"v  c #641301",
"b  c #6C1203",
"n  c #6E1800",
"m  c #67150C",
"M  c #6C120B",
"N  c #731202",
"B  c #7A1303",
"V  c #7B1900",
"C  c #74130A",
"Z  c #7B120C",
"A  c #72190A",
"S  c #730D11",
"D  c #750918",
"F  c #750710",
"G  c #6C1112",
"H  c #771414",
"J  c #574B0F",
"K  c #5C4B14",
"L  c #5C4C19",
"P  c #5A5411",
"I  c #5F521A",
"U  c #69550E",
"Y  c #654F13",
"T  c #644E1B",
"R  c #645116",
"E  c #64521A",
"W  c #62581B",
"Q  c #4D4A29",
"!  c #574B23",
"~  c #5E5325",
"^  c #635227",
"/  c #6E6969",
"(  c #736D6B",
")  c #7B6D6A",
"_  c #7B7371",
"`  c #82070B",
"'  c #970001",
"]  c #9C0302",
"[  c #9A0900",
"{  c #9D010F",
"}  c #A40202",
"|  c #AA0101",
" . c #A40903",
".. c #AD0D00",
"X. c #A3020B",
"o. c #AC010A",
"O. c #A1080B",
"+. c #B10102",
"@. c #BF0700",
"#. c #B60E03",
"$. c #BC0C02",
"%. c #B2000B",
"&. c #BA090B",
"*. c #B61300",
"=. c #BB1000",
"-. c #BC1402",
";. c #B51B00",
":. c #BD1A00",
">. c #BC130A",
",. c #B5180C",
"<. c #A00011",
"1. c #B10211",
"2. c #B51612",
"3. c #BC2209",
"4. c #C30D01",
"5. c #CB0E02",
"6. c #CA0F08",
"7. c #D30F05",
"8. c #C61201",
"9. c #C71400",
"0. c #C41502",
"q. c #C31901",
"w. c #C3140C",
"e. c #C11A0F",
"r. c #CA1005",
"t. c #C20F16",
"y. c #C21111",
"u. c #D72E0D",
"i. c #D63500",
"p. c #DC3504",
"a. c #DB3903",
"s. c #DC340B",
"d. c #D13A0D",
"f. c #DC3A0B",
"g. c #D33707",
"h. c #DE3411",
"j. c #DB311A",
"k. c #E42F02",
"l. c #E23405",
"z. c #EB3201",
"x. c #E83806",
"c. c #E4340D",
"v. c #E03809",
"b. c #E63707",
"n. c #F03200",
"m. c #E63312",
"M. c #E13619",
"N. c #E4391D",
"B. c #EA3314",
"V. c #947D1E",
"C. c #9A791E",
"Z. c #977720",
"A. c #917D22",
"S. c #94792C",
"D. c #A17927",
"F. c #A27531",
"G. c #D94007",
"H. c #81694F",
"J. c #85675F",
"K. c #836C5A",
"L. c #916155",
"P. c #876965",
"I. c #846E70",
"U. c #8E801D",
"Y. c #918014",
"T. c #93811B",
"R. c #9C8331",
"E. c #C79C34",
"W. c #DB9438",
"Q. c #EAFF00",
"!. c #EEFF11",
"~. c #C99B45",
"^. c #B89E8D",
"/. c #AA9F9B",
"(. c #B79E99",
"). c #B5A68F",
"_. c #B7A699",
"`. c #A9A79B",
"'. c #A8A4A1",
"]. c #B5AAAC",
"[. c #B8AFB0",
"{. c #CCCCBB",
"}. c #CECBC7",
"|. c #CBCBCC",
" X c #C6CBC3",
".X c #D4C7C6",
"XX c #D7C8C7",
"oX c #CCC4D3",
"OX c #C8D0D2",
"+X c #D1D5D4",
"@X c #D5C9D5",
"#X c #FFF7F5",
"$X c #FDFCF5",
"%X c #FFF7F8",
"&X c #F4FEFD",
"*X c #FFFCFB",
/* pixels */
"                                .   X + .     o                                 o     . + X   .                                 ",
"                                  * o   X o @ X                                 X @ o X   o *                                   ",
"                                o   + o     o                                     o     o +   o                                 ",
"                                X X o   . X o o                                 o o X .   o X X                                 ",
"                                  o . X o   # o                                 o #   o X   o                                   ",
"                                O . + o X o.X o                                 o X o.X o o . O                                 ",
"                                  X . d N.h o X                                 X o h N.d . X                                   ",
"                                    | z. .  o                                     o    .z.|                                     ",
"                o   . X   o +   +.d.=.9.    X   +     X X .   X X   . X X     +   X     9.-.d.+.  X o   X . o o                 ",
"                  #   o o   d m.@.j b :.  o * #   O   o               o o   O   # * o   :.b j @.c.f   o o   #                   ",
"                X   o X   O.c.| N s k | . +   o   o o o . X .     . X . o o o   o   + . | k s N | c.O.    o   X                 ",
"                o     . d 4.%.f s 3 d +.X o A.V.T 6 @ .   o   + +   o   . @ 6 T V.A.o X +.d 3 s f +.4.d .   o o                 ",
"                & .   } >.X.x v b - - . w u   w E.Y N X o X   o o   X o X N Y E.w   u w . - - b v j <.>.}   . o                 ",
"                  o } 3.] h b k j , 2   V.L y O ^ ~.d 8.O } k     k } O 8.d ~.^ O y L V.  2 , j k M h ] 3.}                     ",
"                X X.| } N v j b b 1   o t W.~     1 8.} N 8.#.1.1.#.8.N } 8.1     ~ W.t o   ; b b j v N } | } X                 ",
"                +. .} j ` d d j z X r K . 8 Y.    X j b j f c.*.*.c.f j b j X     Y.8 . K r X z j d d ` j }  .+.                ",
"o   o     o   N X.| j M k v j m f . F.+           o + | -.X.| f.M.' +.w.+.o o       o # o C.X j m j v k M j | X.N   o     o   o ",
"  o X   o     >.} | d s b k h b N X o i +.c & X o X * | f.u.Z | } N p.g.| o X . o X A  .b o . M b h k b s d | } >.    o   + o   ",
"X o     + X f 4.| h Z d N M d j j X h A v } +.    X } :   k -.k M *.k o $ %.  o   X.] x A j o N j f M N d Z h | 4.f X +     o X ",
"  # . o     0. .} B s c -   .   4 & N h l M b } o O   =.. !.X < 4   Q.O 5..   @ +.j Z b d N   1   .   - c s B } | 0.    o . #   ",
"o   . @ o b h.| d v x 1 +   X X X   X 1 5 a o       o   } o Z } o.j   | X o b a Z d s j 9   o X X X   + 1 x v d | h.b o @ .   o ",
"o X     o v.w. .N k h   o #   O o X   X     x -.| f ; 0   d ] z.p.| j . - : . + X   N 3     o   O   # o   h k N  .w.v.o     X o ",
"    +   . n.' k d H   @   X X   X . &   o N i.B.-.h p d ;   5 $.4.< . - s N j ] 4.G o X +         X X   @   H d k ' n..   +     ",
"  o O   s x.b b f   o +   o o   o       o -.p.l.>.h b j x ; X o o   - b b j j >.f.a.z     o   o   o o   + o   f b b x.s   O o   ",
"X X .   s.9.d D                 o X X o 1 ] -.r.X.- S X.| B 1 - ; 3 N | ] k d >.v.b.#.. o   O X                 D d 9.s.  . X X ",
"o     X z.N v                       o h 4.,.| j 2 k -.X.} ] S ; 9 m } | o.y.< X.*.>.| >       &                   v N z.X     o ",
". o   x M.d ;                   q   > x 5.q.. o   j $.0.X.{ 6.>.@.;.%.| =.:.d 1 k w.} ; o X   .                   ; d M.x   o . ",
"  o   k 4.c o                   C.o M s 1 + X .   > y.i.;.q.| [ | [ =.e.G.6.1   X +.$.-. .. X .                   o c 4.k   o   ",
"  X   &.[   X @                 R N l H d o     X   - ,.c.+.j 3 1 k +.s...3 X   o   w.+.4 o 7 o                 @ X   [ &.  X   ",
".   . -.x                       7 | c j b   O @   o o 4 k ; 9 d v ; 1 N 1 o O       : 4.| o T.X                   .   x -.    . ",
"  o X @.o . o .                   b 9.i & o o   o   X }  .b f -.t.n v } ..    X     b t.q.d W .                 . o . o @.X o   ",
"o     V o o   X                 @ o ] 5.P         o j | d N | | | } F b } b @ o     j >.l.| 8 o                 X   o   V   o o ",
"                                o o 7.2.e U.o X o . } | o - -.j.c.-.1 o | |   o X . o +.h.f X O                                 ",
"                                  X $.>.J .   o   a o.X.k 1 1 B v 4 X h } #.k X o X o ; | 2                                     ",
"                                    E   e F.    o v 4.| g   o   o   o - *.m.y.2 o   X ; } - X &                                 ",
"                                o o . % o o o     | ;.#.c . o + o o . X e.i.c.v   D.T 7.&.. X .                                 ",
"                                .   X o X   X   h m.a.4..   X o X   o o S k.v.G   o + g.#..   o                                 ",
"                                  o     o O .   m b.a.x +       o X + o X : 2 d C . I X 0.o   o                                 ",
"                                X O X X . X   b h > -   o X . . . o X .     N N l X I   T X # o                                 ",
"                                X O   X o   o . } l .   o o .     o     &   b o.v   8 & R.    +                                 ",
"                                  .   X . o   j } G .   X o o   o +   o . d | } | . T     X o                                   ",
"                                X .   X   o ; X.} | b X +       X   X   - e Q 1 E o o   X & . X                                 ",
"                                  o o X .   q P 2 ! e 1     X   X   o + 7 C.U   A.  &X    *         @     @                     ",
"                                  . O o   X K D.X R S.e = o X o * .     @     oX. @X*X.XX  XX                                   ",
"                                o o X X X O * o o + o X     . o + o .   X   I.$XP._.&X).P.*XP.o       @   @                     ",
"                                            . X o     # o . X o   X   . |..X(.{.(.K.XXJ._.{.^.+X|.@                             ",
"                                    .           O o o X . o   X X o o X .   |.P.+ `..X].o K.}.X     @       @                   ",
"                                o         X   .       @ o       o     X   P.XXX . J. XH.X o OXL.        @                       ",
"                                                                          *X(       .X    X ( $X                                ",
"                                                                          $X        *X        *X                                ",
"                                                                          *X}.  @   %X      XX#X                                ",
"                                                                  @       / *X      *X    o %X_                                 ",
"                                                                @           *X  @   #XX     %X                                  ",
"                                                                  @         '.      ].X     [.                                  ",
"                                                                @ @         (       /.    X /                                   ",
"                                                                    @               )   .                                       ",
"                                                                                                                                ",
"                                                                                                                                ",
"                                                                                                                                ",
"                                                                                                                                ",
"                                                                                                                                ",
"                                                                                                                                ",
"                                                                                                                                ",
"                                                                                                                                "
};
