/* XPM */
static const char *_1765142037[] = {
/* columns rows colors chars-per-pixel */
"71 54 188 2 ",
"   c #000000",
".  c #0A0201",
"X  c #010A02",
"o  c #0C0B02",
"O  c #02010B",
"+  c #0D030A",
"@  c #040A0B",
"#  c #0B0A0B",
"$  c #140202",
"%  c #1A0101",
"&  c #130B02",
"*  c #1C0A01",
"=  c #11030A",
"-  c #120D0D",
";  c #001206",
":  c #0C1202",
">  c #031309",
",  c #121301",
"<  c #191101",
"1  c #171806",
"2  c #1F1E0A",
"3  c #010114",
"4  c #090214",
"5  c #2A0600",
"6  c #340000",
"7  c #3C0202",
"8  c #3D0A00",
"9  c #33020A",
"0  c #3B0C0C",
"q  c #38080B",
"w  c #2F130F",
"e  c #321007",
"r  c #3A110D",
"t  c #3A0E13",
"y  c #251B12",
"u  c #3E1411",
"i  c #341B14",
"p  c #232402",
"a  c #282804",
"s  c #27210B",
"d  c #2D2808",
"f  c #29230B",
"g  c #302E00",
"h  c #2F340B",
"j  c #313201",
"k  c #3A3307",
"l  c #363409",
"z  c #393409",
"x  c #3A390D",
"c  c #2B2412",
"v  c #2E2A14",
"b  c #2F3E1F",
"n  c #353512",
"m  c #3C3512",
"M  c #353B16",
"N  c #3D3812",
"B  c #33391A",
"V  c #3D3B18",
"C  c #39351D",
"Z  c #2F2C23",
"A  c #3C2829",
"S  c #3C3525",
"D  c #460000",
"F  c #4E0000",
"G  c #44020F",
"H  c #430D0D",
"J  c #5B0004",
"K  c #46150C",
"L  c #420015",
"P  c #4B0B14",
"I  c #48091E",
"U  c #570F18",
"Y  c #4E1111",
"T  c #4A151A",
"R  c #44131A",
"E  c #541413",
"W  c #561B16",
"Q  c #591816",
"!  c #59111B",
"~  c #5E191E",
"^  c #53161B",
"/  c #680000",
"(  c #7B0001",
")  c #7A0D12",
"_  c #611C14",
"`  c #6A1B1F",
"'  c #64191E",
"]  c #701D17",
"[  c #761C1B",
"{  c #403F07",
"}  c #483D0F",
"|  c #412E11",
" . c #4A2F1A",
".. c #552116",
"X. c #433C15",
"o. c #453716",
"O. c #6D231C",
"+. c #77291F",
"@. c #75221E",
"#. c #5D1621",
"$. c #5E1D24",
"%. c #531926",
"&. c #621823",
"*. c #6A1C24",
"=. c #731B26",
"-. c #781523",
";. c #642222",
":. c #682723",
">. c #6E252E",
",. c #732226",
"<. c #7D2628",
"1. c #742D2D",
"2. c #792829",
"3. c #793327",
"4. c #752C33",
"5. c #7E3536",
"6. c #324400",
"7. c #3E400E",
"8. c #3B4401",
"9. c #3E4D38",
"0. c #4B4A0D",
"q. c #454908",
"w. c #4F520F",
"e. c #525800",
"r. c #50510F",
"t. c #585508",
"y. c #595C0F",
"u. c #424312",
"i. c #484115",
"p. c #464816",
"a. c #4C4C13",
"s. c #49401F",
"d. c #4E4C1A",
"f. c #554C16",
"g. c #514E19",
"h. c #4B5113",
"j. c #535513",
"k. c #5C5515",
"l. c #55541B",
"z. c #59571A",
"x. c #5D5B10",
"c. c #66560C",
"v. c #67680B",
"b. c #63660F",
"n. c #73710C",
"m. c #666F16",
"M. c #6C6D16",
"N. c #6F671C",
"B. c #676B19",
"V. c #736D1D",
"C. c #706C15",
"Z. c #6E7414",
"A. c #6E711A",
"S. c #74731C",
"D. c #79761F",
"F. c #544C21",
"G. c #535126",
"H. c #45463A",
"J. c #6C6A2D",
"K. c #6A6A24",
"L. c #746D24",
"P. c #757224",
"I. c #787526",
"U. c #76742B",
"Y. c #787529",
"T. c #7E7C25",
"R. c #7C3E43",
"E. c #800603",
"W. c #950C00",
"Q. c #A70000",
"!. c #B2040D",
"~. c #882118",
"^. c #82202F",
"/. c #843B36",
"(. c #91383A",
"). c #864036",
"_. c #86403E",
"`. c #953840",
"'. c #984541",
"]. c #71865B",
"[. c #718763",
"{. c #96A679",
"}. c #A1A976",
"|. c #9EBE8D",
" X c #ACBA87",
".X c #B0B69A",
"XX c #E6E0E0",
"oX c #F4F0FE",
/* pixels */
"                                          . .   O .   X . . @ .           @                                                                   ",
"                                . .           $ b   X X       L F $   . O   . O   X       X                                                   ",
"                                        .   . G 7 . O . 3 X X . D . B o     . .                                                               ",
"                                      .     . 9 6 . | .   + . O   9.X m N @     #                                                             ",
"                                      .     . . O . . M o.X.X   X     . z X..                                                                 ",
"                                          . .   O       C     . . # & O X k 7 q .     X                                                       ",
"                                .       .   X       X .   X J ( = {.2 <   O 8 7 Z o                                                           ",
"                                .       .   X .   O X .   . D G . [.|..Xf   3 l o     .                                                       ",
"                                                    3   . i k.o   ]. XE *   V {                                                               ",
"                                                  .   X   d.8.; XX~.}.oXA x m X                                                               ",
"                                                  + .   v c.o.  / !.E.G.1 o.} O                                                               ",
"                                                  O .   h z.& H.) 9 + & B 6.o                                                                 ",
"                                                O     v z.0.o H.* 3.y | X.. O                                                                 ",
"                                                  X   f.c.i.$ e ( % * < l >   .                                                               ",
"                                                O O # 0.P.:   H.Y W.Q.5  .X .                                                                 ",
"                                                  . z t.P.l.X.< = % . M 4 .                                                                   ",
"                                                  . w.M.Y.P.P.f.F.n.S.z.#                                                                     ",
"                                                  O   j.= z a.Z.P.D.L.J., O                                                                   ",
"                                                O   3   p p.- B.I.V.P.T.q.o   O                                                               ",
"                                                      3 j n . l M.D.S.V.j.o                                                                   ",
"                                                  O   . O a.G.+ b.P.V.Y.z.@                                                                   ",
"                                                        . e.j.& K.S.I.a.V .   O                                                               ",
"                                                        O p j.S.Y.S.F.o       .                                                               ",
"                                                O         . c M.V.k.. C .   X O                                                               ",
"                                                      O     s N.j.. l d.o O                                                                   ",
"                                                            m L.h.& S 0.o     O                                                               ",
"                                                  O       O g C., n d.m.:                                                                     ",
"                                                      3 O a l.S.o j K.-       X                                                               ",
"                                                .   O     l y.g.& J.P.-   O                                                                   ",
"                                                O       c j.A.& N v.S.Z.o     .                                                               ",
"                                                  @     j x.& u.Z.U.G.7.o                                                                     ",
"                                                    O   d s.g.u.V . . O     @                                                                 ",
"                                                  .       .       ;.O./.^.$   X                                                               ",
"                                                  .   . t #.! ~ -.,.'.,.. X                                                                   ",
"                                                      . 0 =.<.@.& ' [ o $.. .                                                                 ",
"                                                        w Y _ ).>.% ` W ;.&.  O                                                               ",
"                                                    O . . H ,.(.+.. @ I ' :..                                                                 ",
"                                                    .   . q *.`.<.$ O   U _ *..                                                               ",
"                                                          i 5.1.. .   . E ..*..                                                               ",
"                                                .       . q <.] =   X     T ` O.                                                              ",
"                                                  .     . 0 _.,.$   O   X R -.W . X     .     .                                               ",
"                                                . .   X . u 5.1.- .       $ H ;.*..       X                                                   ",
"                                                  X   O . 0 ,.%         .   . ! *.$   X   X . .                                               ",
"                                                O         r =.$ X .     .   X R ..E $         .                                               ",
"                                                  .   @ . H R..               . K ,.%         .                                               ",
"                                                X . .   0 Q $   .   O     . .   E $..       . .                                               ",
"                                                  .     u 1.. O .         . .   E &.. .                                                       ",
"                                                .   . . 0 /.& O           O       ! .   . .   O                                               ",
"                                                    X   H ` o O                 . T =.X . .   $                                               ",
"                                                  X . 9 4.& . +                   . ^   . O X X                                               ",
"                                                  .   P #.    O                 .   P $   X                                                   ",
"                                                    t ! .                           %.%.$ . .                                                 ",
"                                                    0 & .                       .   .         .                                               ",
"                                                .       X   .                         X .   X                                                 "
};
