/* XPM */
static const char *attack___pitchfork_2_1765308451[] = {
/* columns rows colors chars-per-pixel */
"64 64 232 2 ",
"   c #000000",
".  c #0A0102",
"X  c #010A01",
"o  c #000000",
"O  c #02010B",
"+  c #0A020B",
"@  c #000000",
"#  c #0B0B0B",
"$  c #130203",
"%  c #1C0301",
"&  c #120900",
"*  c #1D0B03",
"=  c #1A020A",
"-  c #16050C",
";  c #0E1000",
":  c #1B1402",
">  c #181806",
",  c #020112",
"<  c #0A0112",
"1  c #011111",
"2  c #1F1C17",
"3  c #1A1516",
"4  c #1C0414",
"5  c #240201",
"6  c #2B0201",
"7  c #200A00",
"8  c #2C0B00",
"9  c #240509",
"0  c #2D030B",
"q  c #250D09",
"w  c #320201",
"e  c #3B0301",
"r  c #370900",
"t  c #3D0B01",
"y  c #32020A",
"u  c #340C0C",
"i  c #211402",
"p  c #211B02",
"a  c #2B1C01",
"s  c #29170B",
"d  c #361708",
"f  c #280110",
"g  c #231A18",
"h  c #162005",
"j  c #262307",
"k  c #332908",
"l  c #2A211B",
"z  c #363B12",
"x  c #2C2626",
"c  c #322B29",
"v  c #36312D",
"b  c #312F30",
"n  c #3B3433",
"m  c #3D3D3B",
"M  c #440303",
"N  c #4D0500",
"B  c #4B0C02",
"V  c #49080A",
"C  c #540603",
"Z  c #5A0603",
"A  c #540B02",
"S  c #5A0A02",
"D  c #5C0A0A",
"F  c #52080B",
"G  c #441400",
"H  c #4C1203",
"J  c #551200",
"K  c #5A1607",
"L  c #480112",
"P  c #580912",
"I  c #5F1411",
"U  c #620300",
"Y  c #650C01",
"T  c #6C0C02",
"R  c #6A0D0A",
"E  c #6A0705",
"W  c #760301",
"Q  c #7B0301",
"!  c #730C02",
"~  c #7A0C01",
"^  c #7A040A",
"/  c #730C0A",
"(  c #7A090B",
")  c #651301",
"_  c #6B1201",
"`  c #6E1A04",
"'  c #6A130B",
"]  c #741203",
"[  c #7A1305",
"{  c #7A170A",
"}  c #740B11",
"|  c #6E1912",
" . c #43270A",
".. c #473909",
"X. c #512D1F",
"o. c #493912",
"O. c #4B3315",
"+. c #543718",
"@. c #432910",
"#. c #633F1B",
"$. c #433D3C",
"%. c #493920",
"&. c #3C4003",
"*. c #4F420C",
"=. c #4A4714",
"-. c #524216",
";. c #6A5817",
":. c #795217",
">. c #72480B",
",. c #716314",
"<. c #62621C",
"1. c #554222",
"2. c #6D5827",
"3. c #725D24",
"4. c #755F30",
"5. c #7C6525",
"6. c #3F3E40",
"7. c #444241",
"8. c #564F4C",
"9. c #5B524D",
"0. c #5A5553",
"q. c #555150",
"w. c #7F7571",
"e. c #830302",
"r. c #8B0402",
"t. c #840B02",
"y. c #8B0D01",
"u. c #840B0A",
"i. c #86050B",
"p. c #940201",
"a. c #9A0301",
"s. c #950D04",
"d. c #9C020A",
"f. c #9A0A09",
"g. c #9A0805",
"h. c #821302",
"j. c #8C1301",
"k. c #8D1900",
"l. c #861709",
"z. c #9D1300",
"x. c #961804",
"c. c #870614",
"v. c #950D11",
"b. c #A40201",
"n. c #AB0201",
"m. c #AA0B01",
"M. c #AC0D0A",
"N. c #A60607",
"B. c #B30302",
"V. c #BC0300",
"C. c #B40B02",
"Z. c #BA0C02",
"A. c #B5020C",
"S. c #BF0E09",
"D. c #B00E0C",
"F. c #A41303",
"G. c #AD1202",
"H. c #A41A07",
"J. c #B51403",
"K. c #BD1103",
"L. c #BB1209",
"P. c #B91805",
"I. c #A20111",
"U. c #A70813",
"Y. c #BB1010",
"T. c #B31411",
"R. c #A81E11",
"E. c #93300D",
"W. c #BA2304",
"Q. c #A52204",
"!. c #C50B0A",
"~. c #C70700",
"^. c #C31303",
"/. c #C91503",
"(. c #CB1D05",
"). c #C31A0C",
"_. c #C51C06",
"`. c #D11809",
"'. c #CA1613",
"]. c #CC2100",
"[. c #C32900",
"{. c #CE2C02",
"}. c #C72808",
"|. c #D42A04",
" X c #DA2D0B",
".X c #D72708",
"XX c #DE3402",
"oX c #DD3B03",
"OX c #D63509",
"+X c #C62816",
"@X c #D32A13",
"#X c #C93312",
"$X c #E72A03",
"%X c #E23507",
"&X c #E13310",
"*X c #F13416",
"=X c #8B7717",
"-X c #885D32",
";X c #8B7327",
":X c #BC7527",
">X c #AD7844",
",X c #837C78",
"<X c #AB841D",
"1X c #9D8032",
"2X c #BC843A",
"3X c #C3832C",
"4X c #B0C400",
"5X c #95847F",
"6X c #988C8A",
"7X c #9B928D",
"8X c #989492",
"9X c #9C9897",
"0X c #8B8380",
"qX c #A39994",
"wX c #A59A95",
"eX c #B6AAA5",
"rX c #B9ABA6",
"tX c #BCBABA",
"yX c #C1B3AD",
"uX c #C3BDBC",
"iX c #C7BBBA",
"pX c #C8C1B7",
"aX c #D1C2BC",
"sX c #C6C4C5",
"dX c #DDD2CE",
"fX c #DDD6D6",
"gX c #D6CECB",
"hX c #E0D5CF",
"jX c #E1D9D7",
"kX c #E4E0DD",
"lX c #F6F1F1",
"zX c #F1E6E2",
/* pixels */
"                                                                                                                                ",
"                                                                                                                                ",
"                                                                                                                                ",
"                                                                                                                                ",
"                                                                                                                                ",
"                                                                                                                                ",
"                                                                                                                                ",
"                                                                                                                                ",
"                    .   O +       +     O         O . +       .     O     + .     , X   .       O O                             ",
"                                @   .   O y ( .     X   X X           X X X w ^ + .   O     O X       .   O .                   ",
"                O + .   X   @ < .     = k.[.B         .     .   O #   .   + % l.}.A       @   O     .         O                 ",
"                    X         X 5 K..XG.{.r.  O O . X             X   O .   . 6 C.@XJ.[.r.      O     X X X .                   ",
"                    X . X 5 !..XC.h.M.Y D O .       o     . X   O O O O   X   O $ ~ ~ Z.[ /. XQ   .     . .   o                 ",
"                o   O 5 t.Z.}.s.! / A X a =X=X1.* o       .     . . X O = k :.;X3.. $ ] R ( Z.'.b.S     . + O                   ",
"              .   5 U.n.n.!.r.! T S - s s ; *.<X#.S X   .     + . O   * ` ,.>Xp $ a > % ~ ! ~ C.L.b.n./     = X                 ",
"            . . ~ B.B.b.L.p.! T ] C j =X+.i > -X:X] v.5 I.B   % ( e.r U.E.2X..@ k ;.;.% ! ] R ~ n.S.n.b.p.A   O                 ",
".       . O = ~ n.b.n.a.! T / R F . o =.3X&.X . C Z.p.u.L.K.a.m.L.M.t.N.z.% + : 5.1X:   6 Q ] ~ ' ~ n.a.a.b.S X     O O     . . ",
"  O       5 t.C.b.a.! _ ] ] ! C o k o.@ @.3.  < % / ~ ! u.{.`.!.[.) } R A O   s ,.8 : =.> 9 Y T ! ! ! r.b.n.m.A         .   X   ",
"@ . O X * Y j.L.a.` ! W T ! ) S s ,.  . .   X   O % b.J.n.A.oX.Xn.C.).e.      X O .   2 2.5 | ] _ ] ) Y e.B.T.Y D     X O O     ",
"  1 . % ~ M.n.a.T ! / _ ) _ T A   4 ] a.A O o   . y C.oX+X~ n.p.j.oX(.e.  @   + * Q b.V X $ E ' R ( / [ ] Q b.B.C.I X   @ . .   ",
"    % y.]..Xa._ [ ! T / ( ~ T G f ) T u.Q O     6 ^ 8 $ u.m._ h.G.A < C Q O X 6 n.g.] / Z 5 ~ ~ ] T ! T ) _ t.M. XG.V   . O     ",
"O   e ).|.Z.p.( L @           . $ ~ } A % k.m.f.N u a...4XX 6 5 &.4Xe y.O   0 b.! [ _ T A O       X . X % R t.V.'.{.k.. .     X ",
"X 5 L.@Xb.] H     .   X   X       $ C % l.$X.XM.Z   w e.$ r.A.f.N w e.o f _ ) _ / _ P 5   O O O X O O . . O 5 T ~ J. Xe.X     . ",
"t &XXXF.! B   +     .   O   .   X O   6 /.%X|.G.R 5 5 $ c.Z.OX}.b.F   0 5   M ! / U *   O   X     + X   . O   % _ r.(.&XE..     ",
"t |.H.} B     O           .     X . . V B.K.Y.p.! / Y % + A J.z.6 . r ~ R Z     % D 6   $   .                   % / u._.Q.  O   ",
"u.z.! 5 X   . .             . p . L h.G.~.g.U B R ~ n.r.% .   . X V R ] _ ~ B.F.D X   O   X                       $ t y.G.C   . ",
"!.f.V                 . .   j 2.= R h.^.r.  @ e { J.n.U.p.r 0 9 M W N.a.~ y.W.%X}.t X +                             $ ^ C.t.X   ",
"m.F .   <   X X         O   : >.! ' E Y   O   9 t.^.^.p.m.r.w e ~ C.b.m.a.A `.OX$Xb..   .   . O                 . .   0 T j.X   ",
"j.      X .   .       . +   . G a.! _ B   O X   C _.|.P.Y.n.J.^.F.B.N./.G.e.b./.C.c.$   # .                     .     O w s.  O ",
"B + .   X . . . O         O   5 i.Z.B X   X     $ C ).(.p.u.b.n.B.^._.|.s.q M t.G.e.w     .                           . 5 Z   O ",
"X +   X                         6 N.R.X.. O O   X   M R 6 6 t M i.Z.{.z.5 O $ u.P.n.B X   X                       o   O         ",
".   . +             O         X 6 J.x...;.X , X < 5 ) ~ ~ _ _ S 0 e J 5   . X w Z.T.C O O X                     O X       O   X ",
"                                w L.H.O.X X     X 5 A.p.[ S.J.C.! ~ n.i.  O O $ h.C.J + h O X +                                 ",
"                                : ..& ..4.    . % ! m.` ! V.n.I.d.~ h.a.A     $ F M.Q p :.X .                                   ",
"                                + o >       + O 5 U.W . C ). X{.s.% 9 d.d.X X 5 t./.G.| -.O   X                                 ",
"                                      O   X . & r.n.a.K 6 e ] ) % 0 u.B.m.H   * y.W.].r.7 @ X                                   ",
"                                X X ,   .     % ] D.b.A O O .     . N '.@Xy.* . w C.#XP X X . .                                 ",
"                                  .   O +     w B.P.G.A     O O X X 7 h.*X}.A O . e r.%   . . X                                 ",
"                                          O % k.%XXXh.. @ . X   .       w M S 6   . N r.5   . X                                 ",
"                                O O .   X   9 j.oX+XA . O   X ,   .   X & / D  .;X>.C.i.  X ,                                   ",
"                                      O X 7 Y Y 6 - .   X   .   O     $ ! B.e.6 . K  Xu.. +   X                                 ",
"                                . O   X   - M a.C .   O @ X X X X + + q @.O.k z   r J.k.  X .                                   ",
"                                X     . + + y d.D   X $ . O . O .   o ..;Xo.: %.: o.* z   . +                                   ",
"                                  .     X * T p.F X X     X     +     . .       > o.d 2.. X   X                                 ",
"                                          M N.A.p.F   O @     O , . .     X   O X : X   O X   <                                 ",
"                                X X   O o  .+.u *.d 9 + + + X   + X X       #   3 -.  O . X X X                                 ",
"                                  X   O i ;.<.i >.5.: X . .   @ . O       O           .     + O                                 ",
"                                  .         .           X X     .   O     .     6.pX    @   , X                                 ",
"                                                                    X     n 9Xv fXlX8Xc qX                                      ",
"                                                                    #   2 7XhX,XiXzXwX7XdX9.                                    ",
"                                                                    b gXuXeXaXwX5XrXw.yXaXeXgX8X                                ",
"                                                                      . n yX9.l eXaX,Xq 5XqX                                    ",
"                                                                  #   # 0XqX  l 6XeX0.  v rXq.                                  ",
"                                                                O     7.kX8.    c 8X    2 9XtX                                  ",
"                                                                      m tX      $.sX      n sX                                  ",
"                                                                      7.lX9X    7.tX  O b fXuX                                  ",
"                                                                      g 7XuX    6.sX    $.jXq.                                  ",
"                                                                  #     $.uX    7.tX#   7.uX  .                                 ",
"                                                                        c ,X    x ,X    x w.                                    ",
"                                                                .       3 0.    x ,X    g 0.                                    ",
"                                                                        .       3 0.          #                                 ",
"                                                                .   O     o                                                     ",
"                                                                            #                 #                                 ",
"                                                                  #     .         O     #                                       "
};
