/* XPM */
static const char *attack___pitchfork_1_1765308452[] = {
/* columns rows colors chars-per-pixel */
"64 64 233 2 ",
"   c #000000",
".  c #0A0102",
"X  c #010A01",
"o  c #000000",
"O  c #0B010B",
"+  c #000A0A",
"@  c #000000",
"#  c #090B04",
"$  c #140201",
"%  c #1B0201",
"&  c #150B01",
"*  c #1C0900",
"=  c #10020D",
"-  c #1A000A",
";  c #140C0A",
":  c #1B0809",
">  c #061607",
",  c #121302",
"<  c #1A1203",
"1  c #1C1B01",
"2  c #12110C",
"3  c #1C130C",
"4  c #171A07",
"5  c #020113",
"6  c #000A13",
"7  c #130010",
"8  c #1B1513",
"9  c #1D1815",
"0  c #230300",
"q  c #2A0201",
"w  c #220901",
"e  c #2A0802",
"r  c #23020B",
"t  c #2B020D",
"y  c #330204",
"u  c #3C0300",
"i  c #3C080B",
"p  c #241304",
"a  c #241D00",
"s  c #27190D",
"d  c #371606",
"f  c #230413",
"g  c #270C14",
"h  c #3C0B14",
"j  c #221C13",
"k  c #221D1A",
"l  c #271A18",
"z  c #3E1712",
"x  c #2D2D01",
"c  c #282006",
"v  c #3A2805",
"b  c #26251F",
"n  c #2D2422",
"m  c #2C2C2B",
"M  c #2A2826",
"N  c #322E2B",
"B  c gray19",
"V  c #430401",
"C  c #490302",
"Z  c #440B04",
"A  c #530301",
"S  c #5C0502",
"D  c #540B01",
"F  c #5B0B02",
"G  c #5B0B0B",
"H  c #59050A",
"J  c #431806",
"K  c #5B1001",
"L  c #511205",
"P  c #450D10",
"I  c #4E1112",
"U  c #610700",
"Y  c #6B0503",
"T  c #650C02",
"R  c #6D0B01",
"E  c #65040C",
"W  c #6B0A0A",
"Q  c #620F0B",
"!  c #740600",
"~  c #7A0500",
"^  c #740C02",
"/  c #7B0C03",
"(  c #740C0B",
")  c #7B0D0C",
"_  c #76050B",
"`  c #641301",
"'  c #6C1201",
"]  c #6B120B",
"[  c #661606",
"{  c #731102",
"}  c #7D1300",
"|  c #731209",
" . c #7C1109",
".. c #781A01",
"X. c #6B0A14",
"o. c #670612",
"O. c #760B12",
"+. c #6C1614",
"@. c #781114",
"#. c #55380F",
"$. c #4B3E1E",
"%. c #553D16",
"&. c #463108",
"*. c #673D24",
"=. c #55430C",
"-. c #484814",
";. c #544213",
":. c #564818",
">. c #625D1D",
",. c #765A17",
"<. c #674610",
"1. c #6E621E",
"2. c #786519",
"3. c #7D7B16",
"4. c #5E442D",
"5. c #6F5920",
"6. c #744323",
"7. c #736123",
"8. c #5A5552",
"9. c #5C5A5B",
"0. c #66564F",
"q. c #665A58",
"w. c #7F7A76",
"e. c #830401",
"r. c #8C0202",
"t. c #830B04",
"y. c #8B030C",
"u. c #830A0B",
"i. c #880808",
"p. c #930403",
"a. c #9B0200",
"s. c #940C02",
"d. c #9C0B00",
"f. c #92020B",
"g. c #9B0008",
"h. c #821300",
"j. c #831A00",
"k. c #8A150E",
"l. c #961102",
"z. c #9C1208",
"x. c #860613",
"c. c #9E0210",
"v. c #861212",
"b. c #A40101",
"n. c #AC0202",
"m. c #A30C00",
"M. c #AC0B02",
"N. c #A4040A",
"B. c #A40909",
"V. c #B30302",
"C. c #BA0202",
"Z. c #B30C02",
"A. c #BD0B01",
"S. c #B80A0C",
"D. c #A41201",
"F. c #AB1302",
"G. c #A81807",
"H. c #B31301",
"J. c #BA1302",
"K. c #BB1B01",
"L. c #B2120C",
"P. c #BA160A",
"I. c #A80011",
"U. c #B60013",
"Y. c #AD1311",
"T. c #B51214",
"R. c #8B2811",
"E. c #BA2E11",
"W. c #C30C01",
"Q. c #C50A05",
"!. c #C31402",
"~. c #CE1404",
"^. c #C31C00",
"/. c #C41A0B",
"(. c #C61708",
"). c #C91810",
"_. c #CC2B02",
"`. c #C9290A",
"'. c #D32E03",
"]. c #DD2E00",
"[. c #D72B0B",
"{. c #C73106",
"}. c #D33201",
"|. c #DA3405",
" X c #D4340E",
".X c #DD350A",
"XX c #D73A02",
"oX c #D92512",
"OX c #D72713",
"+X c #D32F17",
"@X c #E42A08",
"#X c #E13206",
"$X c #EA3714",
"%X c #87641C",
"&X c #87651A",
"*X c #8A6E0E",
"=X c #855E23",
"-X c #967725",
";X c #8D7829",
":X c #877A74",
">X c #8C7872",
",X c #978022",
"<X c #AD812A",
"1X c #B2822E",
"2X c #BA8733",
"3X c #B49032",
"4X c #AF8F18",
"5X c #C7CD04",
"6X c #8D847D",
"7X c #8D8884",
"8X c #938A85",
"9X c #A99B97",
"0X c #ABA198",
"qX c #AA9EA0",
"wX c #A9A7A6",
"eX c #A6A4A3",
"rX c #B9A9A3",
"tX c #B4A5A0",
"yX c #BEB1A9",
"uX c #B7B6B1",
"iX c #C0B1AC",
"pX c #C5B8B2",
"aX c #D2C2BB",
"sX c #CBC9C9",
"dX c #D2CBC7",
"fX c #CBD1CF",
"gX c #D5D0CE",
"hX c #D1CFD0",
"jX c #D1D1D0",
"kX c #DBD6D3",
"lX c #EBE2DD",
"zX c #FBF4F3",
"xX c #EEE8E3",
/* pixels */
"                                                                                                                                ",
"                                                                                                                                ",
"                                                                                                                                ",
"                                                                                                                                ",
"                                                                                                                                ",
"                                                                                                                                ",
"                                                                                                                                ",
"                                                                                                                                ",
"                            $     o   X         o   . X o                           .     o o o         .                       ",
"                    .           X             O             +                     o .   o         .       X   .                 ",
"                    .   .         . O .   o X   . _ 0 5 o                         . y.% 5 o .   o O     =   o o                 ",
"                              .       X       F _.j.$       o                       L {.j.w   o     o                           ",
"                .     .   O .     O     x.oXV.oXC.: o         .                 o o   ~ OXC.OXM.f o O X   .   o                 ",
"                    X     .     5 e._.~.^ R ..( - o     .                         o     W ` T.h.F.[.F.% O o #                   ",
"                      O   X X G b.{.H.^ / | ^ $             .                       .   . K R ^ ~ d.@XM.t.O o                   ",
"                  O o   . x.V.b.W.N.e.( ^ ' $ o 2.,X,.I X     o                 s ;.*X-X1   F ] ] R N.S.n.m.U.%                 ",
"o .         O         F a.n.b.Q.N./ W [ ^ 0 4 d . 3 1X7.' $   o o   X o   o . F *.3X&.@ p l . F ^ R ! s.M.M.b.V./ *     o     o ",
"    +   +           E f.b.a.n.{ ^ R } ^ ^ 7 2.>.x ; #.4XR.F.w y.e.- o Z U.% s.u.2X1.& j -.3.p S T | | ' / b.V.b.N._ *       .   ",
"X   =     o   X F ^ H.n.n.u.( R R / T ^ %   c <X7.+ . t D.V.' A.K.n.b.!.W.v.b.L.C     :.2X#.  > L ! ! ' { ' ' p.b.S./ | $   6 . ",
".     .   O   S L./ L.n./ R ^ ` ' ^ ( - 4 $.# d *X3     F +.^ { `.^./.'.k.R ! R $ o . 2.v O %.c   G  .' R ( ] { g.Z.h.D.s.. o   ",
"O   X       G F.|.m.b.| ^ { / O.Y ( ` % &Xa o       .     y.A.N.b.@X|.C.b.H.M.%   5     F a.* 2.s F ^ ' { ^ R / ' N.b.oXK.t.O X ",
"        o X d.[.(.M.e.` R / T (  .W ' .   D { g.%       + r.'..Xv.a.M.^ `..Xm.0     O ~ V.) Y % X A ) ' ^ / ] R R ^ p.J.[.K.* o ",
"    O     d. XM.e.b./ O.$   X . .     $ T ) T % Q F.V.- e.V . T W.@.( H.u.- f a.%   r.| ' / ' ' - o             o.{ a.^ b. X~.y ",
"      . E.@XK.i.` ^ %     .           o   S * F `.XX).e.O s.e 5Xx & y   5Xx d.% U ' ] t.Y { Z                 o o   S ' / Z.|.XX",
"  .     E.K.k.R .               X   . .   .   l.'.$XK./ h . e.% G a.V._ # e.% o O 0 Y ' ' V . o                       . P u.M.[.",
"      X.D.s.y X                   5     X   r a.Q.H.n.i.F / * G s.oXXXZ.e.$ [ ~ ` $ o   F e O o                           0 T D.",
"      z.n.Y %                     o s   % X.F.!.n.y.i W { a.n.% r b.A.C X F ' ` ( b.F./ : o o                         .     A N.",
"      s.( 0   O                     2.4 ` ! F.T.%   $ E Y.b.I.b.q   X   o.a.V./ T m.@X$Xt.$ o                     +   . o   % H ",
"    . B.0                       .   =.+.~ ] ' $ o X X D J.P.C.n.Z.Z q T b.n.b.P.F D.].XX~.0   .                         o       ",
"      F $   X .                 X   s p./ ' X.0   $   r F.'.!.K.Z.W.Q.J.Z.n.Z.W.( n.W.H.B.V                                 . . ",
"  o     $                         $   U L.j.$     O o   % z.}.V.! N.a.n.J.J. XK.V w T P.b.u   .                                 ",
"  o X o                             X o e.H.6.&       5 o q W y y 0 t S n.'.(.A .   F Z.!.{ $ o                         .       ",
"                                  X o . d.P.J %Xp         G ' ( ( K ( i q T u . o     m.H./ %                                   ",
"                                    o $ s.J.<.,       o   f.n.^ F.~.H.i.^ m.b.&       m.!./ :                                   ",
"                                  X     $.% k %Xg       U n.| { c.b.n.n./ T a.e.$   O U G./   a .                               ",
"                                o         c X     o     r.b.$ 0 m.#X#X/.Z $ f.b.% X o % G.n.q =X2                               ",
"                                .   O . X   .       o S a.d.u.i u D ^ y o H b.Z.) %   G F.!. .=.2                               ",
"                                  +       +       O o D Y.n.^ %           q m.}.^.Z $ D S.].C.J .                               ",
"                                    .             + X r.A.P.e.$   o O .   $ T `.+X} $   r.OXh.$                                 ",
"                                  o o               ` `.|.!.0   X     5 o     r q R - o * r.C .                                 ",
"                                                o   G _.#X} %               $ J a.n.%   q f.V o                                 ",
"                                                . * F V e O 5 $     X     . % z ;.:.i %X5.G.V.0                                 ",
"                                                o   p.) = . X o o   o 5 o   a 1.1.:.<   , E./.%                                 ",
"                                                  F a.) $     .   X X     o   .   5 . o + s.Q.%                                 ",
"                                                t r.n.b.} .   O                 O       %.@ %.>                                 ",
"                                                1 =.h 4.v g     o             o   o   5 %.; 2.<                                 ",
"                                                ;.;X, -.-X&.X X                 o   X $ a X   .                                 ",
"                                                o   .     o                         o   -.> o                                   ",
"                                                                                                                                ",
"                                                                        o           o   fXm               @                     ",
"                                                                            @     qXk eXzXkXb 9Xn       o                       ",
"                                                                o     o       X q.lX8X9XxXpX:XlX7X8   o     o                   ",
"                                                                            wXsXrXaXrX>XyX:X9XpXrXdXsXM o                       ",
"                                                                        o       0X>X3 8XaXrXj 0.iXn       o                     ",
"                                                                              8.pXb . q.uX:Xl   tX:X2   o                       ",
"                                                                              gX7Xj     wXM     0.lXm                           ",
"                                                                              hXN       jXN       jXB     o                     ",
"                                                                  o     @     hXgXM     jXN     eXzXm   o   o                   ",
"                                                                        o     9.xXm     sXB     gX7X8       o                   ",
"                                                                      o         dXM o   jXm     dXN       o                     ",
"                                                                            o   6Xn     7Xk     8Xk                             ",
"                                                                                q.8     8Xj     8.9                             ",
"                                                                            o           8.9         o o                         ",
"                                                                                                  o                             "
};
