/* XPM */
static const char *_1765142037[] = {
/* columns rows colors chars-per-pixel */
"71 54 198 2 ",
"   c #000000",
".  c #0B0202",
"X  c #020A01",
"o  c #0C0C01",
"O  c #03020B",
"+  c #0A040A",
"@  c #000909",
"#  c #0C0B0C",
"$  c #130202",
"%  c #190201",
"&  c #140B02",
"*  c #1E0C01",
"=  c #13020A",
"-  c #1F0008",
";  c #130C0B",
":  c #081209",
">  c #13120B",
",  c #010110",
"<  c #000912",
"1  c #1F1A14",
"2  c #160815",
"3  c #220202",
"4  c #210A00",
"5  c #2A0B0B",
"6  c #2A0300",
"7  c #310901",
"8  c #30070F",
"9  c #3A020C",
"0  c #3B0C0E",
"q  c #360302",
"w  c #201A02",
"e  c #26180B",
"r  c #36100D",
"t  c #3C0C12",
"y  c #3A0F18",
"u  c #231812",
"i  c #3A1214",
"p  c #341812",
"a  c #222707",
"s  c #292508",
"d  c #26290A",
"f  c #322900",
"g  c #33250E",
"h  c #2B3206",
"j  c #2E3109",
"k  c #243508",
"l  c #313201",
"z  c #323E00",
"x  c #34360C",
"c  c #38370B",
"v  c #38390D",
"b  c #353B0D",
"n  c #222815",
"m  c #362F1D",
"M  c #373714",
"N  c #2B3D2D",
"B  c #353F27",
"V  c #363A2C",
"C  c #400207",
"Z  c #490100",
"A  c #4B000A",
"S  c #420C0E",
"D  c #4B0C03",
"F  c #540000",
"G  c #510C0C",
"H  c #530E00",
"J  c #471009",
"K  c #4C1008",
"L  c #55140E",
"P  c #58110F",
"I  c #410D11",
"U  c #480B13",
"Y  c #530B12",
"T  c #5B0F14",
"R  c #451211",
"E  c #4B1415",
"W  c #4D1912",
"Q  c #4B1319",
"!  c #4C191A",
"~  c #45181D",
"^  c #541414",
"/  c #5C1314",
"(  c #521B15",
")  c #5E1A14",
"_  c #56151A",
"`  c #5B131B",
"'  c #531A1A",
"]  c #5C1B1A",
"[  c #621A15",
"{  c #621A1D",
"}  c #6C1C1B",
"|  c #75161A",
" . c #403307",
".. c #453D0C",
"X. c #443E04",
"o. c #582417",
"O. c #413B14",
"+. c #423C1B",
"@. c #483F1E",
"#. c #483C14",
"$. c #573710",
"%. c #66221F",
"&. c #772C17",
"*. c #74201E",
"=. c #4F1C23",
"-. c #5E1B22",
";. c #6C1E24",
":. c #681C28",
">. c #651520",
",. c #791D20",
"<. c #771A2F",
"1. c #7F1F2B",
"2. c #562020",
"3. c #5E2025",
"4. c #622322",
"5. c #6A2B25",
"6. c #702126",
"7. c #782726",
"8. c #76242A",
"9. c #7A232B",
"0. c #7A292E",
"q. c #782831",
"w. c #3C4003",
"e. c #3F4614",
"r. c #364329",
"t. c #46420C",
"y. c #4E4B08",
"u. c #434B0B",
"i. c #564C0B",
"p. c #4D5409",
"a. c #5C5A0D",
"s. c #4A4D1C",
"d. c #5D4E14",
"f. c #554A17",
"g. c #4F5A15",
"h. c #585716",
"j. c #555811",
"k. c #5D5A19",
"l. c #585518",
"z. c #625816",
"x. c #65461A",
"c. c #6E6E0E",
"v. c #706C0B",
"b. c #64621A",
"n. c #6A6D1A",
"m. c #746C13",
"M. c #72661E",
"N. c #6D7216",
"B. c #697C15",
"V. c #75721E",
"C. c #78701D",
"Z. c #757015",
"A. c #484424",
"S. c #544C25",
"D. c #4B4C3A",
"F. c #564837",
"G. c #4A5A35",
"H. c #45513B",
"J. c #614F29",
"K. c #6E6B23",
"L. c #7F6825",
"P. c #736828",
"I. c #6E7523",
"U. c #727424",
"Y. c #7A7421",
"T. c #7E772F",
"R. c #787928",
"E. c #60783E",
"W. c #5E614C",
"Q. c #697C5C",
"!. c #810000",
"~. c #880704",
"^. c #900100",
"/. c #841C03",
"(. c #AC010A",
"). c #801C26",
"_. c #911D20",
"`. c #853A3C",
"'. c #8A3B3C",
"]. c #873737",
"[. c #913B3C",
"{. c #87423D",
"}. c #91403F",
"|. c #6A8659",
" X c #7D8860",
".X c #818B66",
"XX c #929A67",
"oX c #87A078",
"OX c #94A271",
"+X c #93B078",
"@X c #9AB37A",
"#X c #A9B27B",
"$X c #9EAA8E",
"%X c #9BB880",
"&X c #A0AB8B",
"*X c #AFB88B",
"=X c #EFEFE3",
"-X c #FAF8FF",
/* pixels */
"                                                                                                                                              ",
"                                                                                                                                              ",
"                                                                                                                                              ",
"                                                                                                                                              ",
"                                                                                                                                              ",
"                                                                                                                                              ",
"                                                                                                                                              ",
"                                                                                                                                              ",
"                                                                  O + & $ X X O                                                               ",
"                                                                $ . +.r.Q.|.u O                                                               ",
"                                                              . X E.OX@X#X@X+X1                                                               ",
"                                                              . V A. XE $X*XK *                                                               ",
"                                                            . . B XXoX=X_.$X-Xu                                                               ",
"                                                              . . F.&X/.^.F ~.4                                                               ",
"                                                              . N G.%XW F.w =                                                                 ",
"                                                              . o D..XL & 0.&..                                                               ",
"                                                O     O l f O.h ; H.G.J Z 3 o O                                                               ",
"                                                    a x k.z.C.S.y.O.& Z (.^.- .                                                               ",
"                                                . a w.l.m.; n.i.V.g.#.* 2 &   X                                                               ",
"                                      O           l k.C.R.X e.K.V.P.k.f.+.+ . O                                                               ",
"                                                  S.c.N.> M n.U.R.m.I.t...@ O $                                                               ",
"                                        O       d j.; O j f.M.V.L.B.Y.J.X n X X                                                               ",
"                                        +     X d.a.X z N.Z.Y.p.U.p.K.X.X x X                                                                 ",
"                                            X n D % + , b.h.+ O   b.T.& O O p +                                                               ",
"                                . X X X O O X 7 C . b K.I.& c O.X @.o O X c k .                                                               ",
"                                O         . q %   b v.Y.> h P.e.% O   . . O 9 .                                                               ",
"                                O + X . X e H z.# . b.& v s.C.& . X +       X 6                                                               ",
"                                  O     O   s d.U.B.:   t.f.=     .   X   +.j .                                                               ",
"                                .   O < O   X . j K.x.s.: . . O + O O   O.# @                                                                 ",
"                                          X   g X . O @ x u.X O |.W.X y.m X   .                                                               ",
"                                    . . X   g g...$.u.o + , A !.A . q . . O O @                                                               ",
"                                O     O O @   O A.u.o %.= X A H.o 9 O   @ . . .                                                               ",
"                                    X       S } + . 4.'.}.7.% O . X   X X O   X                                                               ",
"                                    X       0 { <.8.].9.8.5._ $ ! ` . o . . . X                                                               ",
"                                            5 ^ _ }.[.& :.]   Q ] T ` . X O @ .                                                               ",
"                                        O   & 0 ( ].5.. . . ' -.[ o./ $   @                                                                   ",
"                                X       O   . 0 ] } 1.X     . Q ] P 4.4..   + .                                                               ",
"                                    .         t ^ {.0.. O O   X _ { ( G Q o   O                                                               ",
"                                    . X       I ` } {.; O . .     =.] } / X                                                                   ",
"                                    . X   .   I R *.'.% @ . X   O   ' / 4.Y .                                                                 ",
"                                                y T 9.. O @ .       X ~ ) Y O                                                                 ",
"                                                . ( ,..   X $ X O X   . ) Y @ .                                                               ",
"                                                r 5.'.q.$     .   X . X ! ;.X .                                                               ",
"                                    . .         S | [.8.$ .       .   O . >.&                                                                 ",
"                                                i ).;.. . X . @ @ . X O   _ ! .                                                               ",
"                                            . $ r 6.% X   X   O       O + E } X                                                               ",
"                                  .     X   . 5 R ].X # O . X           O W [ .                                                               ",
"                                        X   $ i / '.o   O       O   X     G o.$                                                               ",
"                                    .   .   X U '.&     X X . O   . X       ! ^ . .                                                           ",
"                                          X X 0 `.;         . O X .       . Q P . .                                                           ",
"                                O           $ I 2..         .           O . Q { . .                                                           ",
"                                      . . . t Q 3     .     .           O . i 3.                                                              ",
"                                      . + X 8 3 .   O         X           . % i .                                                             ",
"                                . X     X X .     X             .       @     .                                                               "
};
