/* XPM */
static const char *attack___pitchfork1765308451[] = {
/* columns rows colors chars-per-pixel */
"64 64 196 2 ",
"   c #000000",
".  c #0A0102",
"X  c #010A02",
"o  c #000000",
"O  c #02020B",
"+  c #0A010B",
"@  c #000000",
"#  c #0C0A0B",
"$  c #110001",
"%  c #180700",
"&  c #12000A",
"*  c #130C0A",
"=  c #020211",
"-  c #0B0013",
";  c #000911",
":  c #04031A",
">  c #0A0718",
",  c #230100",
"<  c #2C0302",
"1  c #2A0B01",
"2  c #2D020C",
"3  c #250D07",
"4  c #320101",
"5  c #380003",
"6  c #350903",
"7  c #330309",
"8  c #330D09",
"9  c #3C000E",
"0  c #241E00",
"q  c #291D00",
"w  c #2B1C0A",
"e  c #321B09",
"r  c #2D0213",
"t  c #310015",
"y  c #3B0110",
"u  c #1B2902",
"i  c #242504",
"p  c #2A2102",
"a  c #29250C",
"s  c #302205",
"d  c #232C11",
"f  c #232019",
"g  c #660701",
"h  c #6B0402",
"j  c #650E00",
"k  c #6C0C01",
"l  c #6E070A",
"z  c #6C0C0A",
"x  c #620F09",
"c  c #770703",
"v  c #7D0500",
"b  c #730C01",
"n  c #7A0B01",
"m  c #70070C",
"M  c #7F060F",
"N  c #740C0B",
"B  c #790C0B",
"V  c #621402",
"C  c #6C1201",
"Z  c #691800",
"A  c #6C120A",
"S  c #731201",
"D  c #791305",
"F  c #72140B",
"G  c #6D0C12",
"H  c #750D13",
"J  c #780B10",
"K  c #720711",
"L  c #661512",
"P  c #711414",
"I  c #7C1414",
"U  c #5E4F1C",
"Y  c #5A4D16",
"T  c #5A531B",
"R  c #58480C",
"E  c #695010",
"W  c #645019",
"Q  c #654A15",
"!  c #564D2C",
"~  c #5E522C",
"^  c #564C33",
"/  c #555136",
"(  c #644320",
")  c #6B4D27",
"_  c #645125",
"`  c #685020",
"'  c #7A6D5E",
"]  c #74695B",
"[  c #6C6658",
"{  c #6F6966",
"}  c #786F60",
"|  c #746D6B",
" . c #786865",
".. c #7A7267",
"X. c #7A7675",
"o. c #830508",
"O. c #800809",
"+. c #820D03",
"@. c #960201",
"#. c #9D0302",
"$. c #9C0709",
"%. c #9E090B",
"&. c #A40101",
"*. c #AB0102",
"=. c #A40802",
"-. c #A4000B",
";. c #AB020A",
":. c #B30103",
">. c #B90000",
",. c #B50C00",
"<. c #BC0E00",
"1. c #B2000B",
"2. c #BA0008",
"3. c #AE1400",
"4. c #AE1A00",
"5. c #B51200",
"6. c #B51402",
"7. c #B81200",
"8. c #BC1100",
"9. c #BC1402",
"0. c #B51900",
"q. c #BC1A03",
"w. c #BD140E",
"e. c #B5130E",
"r. c #A70213",
"t. c #A1051A",
"y. c #B00011",
"u. c #B30D11",
"i. c #BE1113",
"p. c #C20E02",
"a. c #CC0C09",
"s. c #D00F00",
"d. c #C11601",
"f. c #C11104",
"g. c #C31301",
"h. c #CC1301",
"j. c #C01B00",
"k. c #C2130C",
"l. c #CC1108",
"z. c #C60D12",
"x. c #C61912",
"c. c #CF3E09",
"v. c #D53501",
"b. c #DC3305",
"n. c #D43B00",
"m. c #DA3C02",
"M. c #DC360E",
"N. c #DE380E",
"B. c #DC3413",
"V. c #D53819",
"C. c #E32E00",
"Z. c #E72F0B",
"A. c #E33005",
"S. c #E23302",
"D. c #E53A02",
"F. c #E3350C",
"G. c #E9340A",
"H. c #E23C0A",
"J. c #E43412",
"K. c #EB3412",
"L. c #91791A",
"P. c #9E7A19",
"I. c #9E741E",
"U. c #A1761A",
"Y. c #A27B1C",
"T. c #967A23",
"R. c #997822",
"E. c #A27E2A",
"W. c #8C655E",
"Q. c #8A6463",
"!. c #948123",
"~. c #988026",
"^. c #CA9C2C",
"/. c #C59735",
"(. c #C8A031",
"). c #F5FF08",
"_. c #FBFD00",
"`. c #AFA69F",
"'. c #B5A898",
"]. c #B6A399",
"[. c #AFA7A3",
"{. c #B7A4A4",
"}. c #BDA4AA",
"|. c #C1A79A",
" X c #C9CBBD",
".X c #CDCBC4",
"XX c #CBC8CA",
"oX c #D3C6C5",
"OX c #D3CBC4",
"+X c #D8CFC6",
"@X c #D5CDCB",
"#X c #D1C6CC",
"$X c #C6D0C8",
"%X c #FDF7F7",
"&X c #FFFFF6",
"*X c #FEFDFC",
/* pixels */
"                  O +       .   @   .   . O O                                       X   O O       .     O O O                   ",
"                    X O O     O   .     .     O                                   O   .   O     O     O O X                     ",
"                .   X               X *.X   O                                   o     *.    X             X   .                 ",
"                + .   O O     O O j B.A   @ .                                       ; z H.b     O     O .   . +                 ",
"                X   O O . . .   I 5.f.k O   .                                         - k 0.S.z   . . .   O   X                 ",
"                + X     ; O F S.7.&.S <.. O                                     O O X   d.v &.p.S.F O ;     X +                 ",
"                O     :   #.J.&.;.S k K.O X @ .                                     . O F.B l =.&.J.#.  :     O                 ",
"                O     +   a.&.G b k b *.      .                                     ;   #.S C b G &.a.  +     O                 ",
"                O @     &.&.b k b 4 C %.    Y.L.U q X .       O O       . X q U L.Y.    %.C 4 b C b &.&.    @ O                 ",
"                    .   h.h S b C 2 <   w e = d (.( +.O O @         @ O O +.( (.d = e w   < 2 C b S h h.  .                     ",
"                      -.*.I C N G 2 7   P.T s O _ /.S d.+ @.C     C @.+ d.S /._ O s T P.  7 2 G N C I *.-.                      ",
"                      *.b g C k b 1   O i ^.)     8 7.*.k q.f.1.1.f.q.k *.7.8     ) ^.i O   1 b k C g b *.                      ",
"                    V *.S C b S C & w E   a U.      n z N o.A.8.8.A.o.N z n       U.a   E w & C S b C C *.V                     ",
"                  O k.#.B C C b C   ~.O + O   +   O   2.5.&.*.c.c.*.&.5.2.  O   +   O + O ~.  C b C C B #.k.O                   ",
"                  r.5.:.k S M b z     C *.n           #.B.m.k :.:.k m.B.#.          n *.C     z b M S k :.5.r.                  ",
"                  n G.#.n L k < < O n k n $.*.@ +   &.6 O l j.l l j.l O 6 &.  + @ *.$.n k n O < < k L n #.G.n                   ",
"                  <.H.;.F k <       m B S k A *.O   O <.+ ).  1 2   _.O g.    O =.k S S m Z       < k F ;.H.<.                  ",
"                  9.S.*.C 1       . > , b C k H S b   O #.O N *.&.j = &.O     O   O b < 2 .   .     1 C *.S.9.                  ",
"                a.M.g.b k . +     .     1 B     . O % 2   C &.K.F.*.g O 3 < b &.l.A   O   X @     + . k b g.M.a.                ",
"                K.n.u.C   @ O         . .   B i.&.S C C 2 O < ,.9.2 O , 4 6 k l.m.C.N X       .   O @   C u.n.J.                ",
"                J.v.;.b     +   - .   O . z J.n.g.b k b b 4   O     < 6 z V H 3.N.Z.d.. .         +     b ;.v.J.                ",
"                N.g.*.    O           O   x.b.D.p.C K *.;.x 2 4 2 9 7 B C b C 2.0.q.&.7 X     .     O     *.g.N.                ",
"                n.f.C O   O         $ o 3 *.q.p.&.< 5.>.#.=.S 2 < k A &.*.F 1 b k *.w.5.m   +       O   O C f.n.                ",
"                G.*.z           O . X   < *.9.z 2 b 0.k.*.&.9.p.d.b =.&.;.9.k 2 c   0.h.b 4 O i           z *.G.                ",
"                V.:.    .     . O .   &.w.w.*.O @ 4 8.F.0.g.;.&.=.p.y.#.7.p.C         y V k . T..     .     :.V.                ",
"                d.#.o @   O     p   5 t.,.h.      - < <.F.&.S < 4 *.d.k.H.p.< O .   O g P S b T     O   @ o #.d.                ",
"                p.$   + @ .     E.  *.0.y     O .   O 7 C 2 2 n b A &.C.d.<         :   S C &.w     . @ +   $ p.                ",
"                4.@       .   X Y v w.q.k             ;.&.n k g.q.j r F 4   O   O X     B k.B   X   .       @ 4.                ",
"                6..         .   i ;.m.g.S O O @ +   G :.D j -.&.;.*.B *.&.O           _ e.&.      .         . 6.                ",
"                n     o       O   4 #.2       .     *.:.  8 p.S.S.&.c A &.b         u R.p.k.O X O       o     n                 ",
"                  o     . O     O < ;.4 O O       D 3.$.m O 2 C S p.  X 1.$.  = O O !.  9.g.        O       o                   ",
"                O   + +             *.7.` T.    t ,.J.s., @       O   b &.1.S         U O Q   O     O   + +   O                 ",
"                                  . p.B.u       z J.S.z.X         .   S #.9.P O       W   !   O     @                           ",
"                                O   k.<.. O   @ C S.N.h   &       @ O C p.p.@.X       q   o O             @   @                 ",
"                                O   T $ R   & < k 3 < O O   O         2 z.F.p.4       ^ O .   =                                 ",
"                                  . L.  p !.  < O.k < O = .         O   7.F.D.C                     @         @                 ",
"                                    O i =     C *.J O O       . + @   O   7 , G       *X          @     @ @                     ",
"                                . O       O   *.*.&.Z   O     . O   $ +   o N   .X  OX*X@X  .X                                  ",
"                                @             _ 2 ~ 0 < . O       O     .     W.*X] {.*X]...*X}                                 ",
"                                  O .   O   2 I.  W R.0 O .     O   @   O .X$X{.oX'. .OXQ.'.oX].XXXX                            ",
"                                                                  O         o oX' O |. X}.  ' #X  .                             ",
"                                                                        *   { @X. o  .@X]     +X|     @                         ",
"                                                                @       f   *X{   / . OX    = [ *X    @                         ",
"                                                                  @         *X        &XO     o *X                              ",
"                                                                      @   @ *X@X  O   *X  O   XX*X    @     @                   ",
"                                                                  O         X.%X    . *X  O   *X{ o                             ",
"                                                                              *X      *X    O *X      @                         ",
"                                                                              [.@ .   ].  .   `.  o         @                   ",
"                                                                  @           |     . {.      |                                 ",
"                                                                              .     * |       .                                 ",
"                                                                                  #           .                                 ",
"                                                                  @     @     @                                                 ",
"                                                                    @               O                                           ",
"                                                                    @       @                                                   ",
"                                                                        @               O                                       ",
"                                                                                            O                                   ",
"                                                                                                                                ",
"                                                                                                                                ",
"                                                                                                                                ",
"                                                                                                                                ",
"                                                                                                                                ",
"                                                                                                                                ",
"                                                                                                                                ",
"                                                                                                                                "
};
