/* XPM */
static const char *_1765142037[] = {
/* columns rows colors chars-per-pixel */
"71 54 195 2 ",
"   c #000000",
".  c #0B0102",
"X  c #020903",
"o  c #0D0B02",
"O  c #02020A",
"+  c #0A010A",
"@  c #020808",
"#  c #0C0B0B",
"$  c #140401",
"%  c #1A0202",
"&  c #140B03",
"*  c #1A0C06",
"=  c #110C0B",
"-  c #1D0C09",
";  c #11060A",
":  c #0B1805",
">  c #131203",
",  c #1B1501",
"<  c #1C1B03",
"1  c #14120A",
"2  c #1A1C0E",
"3  c #141D0C",
"4  c #020213",
"5  c #0F0F11",
"6  c #170712",
"7  c #1C0814",
"8  c #0C1816",
"9  c #1F1617",
"0  c #181816",
"q  c #220303",
"w  c #2D0405",
"e  c #220903",
"r  c #24040A",
"t  c #230A0C",
"y  c #360000",
"u  c #3C0303",
"i  c #320008",
"p  c #210013",
"a  c #280D14",
"s  c #221A12",
"d  c #281F18",
"f  c #371410",
"g  c #3F1215",
"h  c #1A2004",
"j  c #1C2B18",
"k  c #2A2C0E",
"l  c #282A0A",
"z  c #3E2F0E",
"x  c #313004",
"c  c #393907",
"v  c #3C3E0C",
"b  c #3B360E",
"n  c #2B2D14",
"m  c #262A16",
"M  c #302E1F",
"N  c #342614",
"B  c #2D3116",
"V  c #363E16",
"C  c #3B3C14",
"Z  c #3F3D28",
"A  c #3D3834",
"S  c #400004",
"D  c #4E0B0B",
"F  c #400C0E",
"G  c #5A020A",
"H  c #570502",
"J  c #4D1F0F",
"K  c #441215",
"L  c #41161A",
"P  c #4A141A",
"I  c #43181F",
"U  c #4B191A",
"Y  c #481812",
"T  c #5C1A12",
"R  c #51161C",
"E  c #54191C",
"W  c #5B1A1C",
"Q  c #5A1616",
"!  c #440A19",
"~  c #630003",
"^  c #71000A",
"/  c #621716",
"(  c #621E12",
")  c #62141A",
"_  c #631C1C",
"`  c #69191A",
"'  c #771D12",
"]  c #453C05",
"[  c #5D251C",
"{  c #57291C",
"}  c #453816",
"|  c #4A3F11",
" . c #423A1A",
".. c #742305",
"X. c #63330F",
"o. c #792018",
"O. c #421721",
"+. c #5F1422",
"@. c #5C1D20",
"#. c #621C22",
"$. c #6C1D25",
"%. c #60172A",
"&. c #771A26",
"*. c #5E2025",
"=. c #652325",
"-. c #6C2326",
";. c #6C292B",
":. c #782724",
">. c #772828",
",. c #643428",
"<. c #6D2B35",
"1. c #6B2C3D",
"2. c #673534",
"3. c #7F3D31",
"4. c #7D313E",
"5. c #3D400C",
"6. c #374303",
"7. c #34401A",
"8. c #394030",
"9. c #4B4B0B",
"0. c #5E460A",
"q. c #545B0E",
"w. c #5A5F0F",
"e. c #484717",
"r. c #404318",
"t. c #4E4B14",
"y. c #564A17",
"u. c #4C5615",
"i. c #5C5515",
"p. c #545A14",
"a. c #5A5915",
"s. c #525419",
"d. c #5A541C",
"f. c #50581C",
"g. c #5A5C1A",
"h. c #525512",
"j. c #61531C",
"k. c #736A0F",
"l. c #72750E",
"z. c #6E6A1E",
"x. c #656616",
"c. c #736910",
"v. c #786E17",
"b. c #746D1B",
"n. c #7A6F1D",
"m. c #78771B",
"M. c #7A7815",
"N. c #67781A",
"B. c #454020",
"V. c #535322",
"C. c #796924",
"Z. c #6C7224",
"A. c #747323",
"S. c #7B7522",
"D. c #7C722B",
"F. c #787B2A",
"G. c #737430",
"H. c #65662A",
"J. c #5B6A4C",
"K. c #59744B",
"L. c #5E7354",
"P. c #707744",
"I. c #7B764E",
"U. c #656F57",
"Y. c #656E59",
"T. c #677655",
"R. c #830100",
"E. c #8C0600",
"W. c #80171B",
"Q. c #801E1F",
"!. c #AB0000",
"~. c #9A2A1F",
"^. c #A32616",
"/. c #832A22",
"(. c #823731",
"). c #8A3729",
"_. c #83721A",
"`. c #83433A",
"'. c #807324",
"]. c #8C3F47",
"[. c #953541",
"{. c #8E434A",
"}. c #9D4048",
"|. c #768C68",
" X c #879F61",
".X c #8A9E6B",
"XX c #AD946B",
"oX c #A78E70",
"OX c #91A477",
"+X c #96A481",
"@X c #9BB389",
"#X c #A2B389",
"$X c #A7B794",
"%X c #CCBDC0",
"&X c #BCC5C2",
/* pixels */
"                                                                                                                                              ",
"                                                                                                                                              ",
"                                                                                                                                              ",
"                                                                                                                                              ",
"                                                                                                                                              ",
"                                                                                                                                              ",
"                                                                                                                                              ",
"                                                                                                                                              ",
"                                                                                            X                                                 ",
"                                                                              X         X                                                     ",
"                                                                          X X                 @                                               ",
"                                                                  O     X     #   O     X O                                                   ",
"                                                                                            O X                                               ",
"                                                                            X           O                                                     ",
"                                                                  O     X   3 U.$X$XU.    O                                                   ",
"                                                                          2 J.#X X.X+X8.                                                      ",
"                                                O           O   O   X 4   < J.OXoX!.~.@XT.  .                                                 ",
"                                                    O O         > ] v 1 N l XX^.@X%X{ |.A   +                                                 ",
"                                                          O   < d.M.H.z m I.G p E.^.P.u   X . X                                               ",
"                                                O       @   o V.A.b.S.i.j K.t X.q }.&XO   +                                                   ",
"                                                          2 Z < Z.v.Z.S.q.i R.% ~ X     @                                                     ",
"                                                  O       > e.C 2 _.g.1 C.C e R..     .   O   .                                               ",
"                                                          < c , h.d.h G.z.Z.b     X O 4 .     X                                               ",
"                                                      + 1 s.g.s '.u.1 a.M.A.a.= n .     .                                                     ",
"                                                  O     :  .* q.C.a.  > s.c.V & l + O                                                         ",
"                                                  + + . , a.s N.w.5 n X 4 . = v x                                                             ",
"                                                        8 C q ' f.> 0.n     X # B.m                                                           ",
"                                                O 4 . > 7.O % H ~ : } . X .       1   O       o                                               ",
"                                                . . & y.i.& B   $ H       O   @ + .         O                                                 ",
"                                                  X 6.5.& 5.c 6 ~ ..D.y.o   4     o M X     O                                                 ",
"                                                  9 i.V.1 s.F.s.O & p.l.f.X       > l         O                                               ",
"                                                o 9.a.1 a.D.k.m.x.k   0 j.b.j.X     > n .                                                     ",
"                                                  , u.n.z.t.| t.V       X , D.i.    1 N O                                                     ",
"                                                7 ! > r. .    O w )       X O   $ w   X                                                       ",
"                                                o D     r o./.].4.T O.O   . O   % G ^ . y X                                                   ",
"                                                $ $.&.>.`.:.3.Q.o.T Y   @   X .   d L.X u +                                                   ",
"                                                  o E :.(.#.e :.E & =.D           X   % S X                                                   ",
"                                                + % E -.{.<.$ ) . % W ` U     +             .                                                 ",
"                                                . X $ ( :.1.4 O % [ J Q U   O         +     .                                                 ",
"                                                X   & %.=.).(   O % W ` $.K     X   O       + X                                               ",
"                                                      & [ W.W     . r E / Y                                                                   ",
"                                                    + - Q [ 2.        * @.&.P     +                                                           ",
"                                                      . > -.[.Q   X     * P K .   .       .                                                   ",
"                                                  X     % +.>.,.      +     e f o         .   .                                               ",
"                                                      . X > >./ .       @ % W W I   X .                                                       ",
"                                                        $ P       X       r E / E     +                                                       ",
"                                                  . X & ) W +..       O     $ #.Y .           .                                               ",
"                                                  @ X $ -.;.  O         +   & ) _ L   X                                                       ",
"                                                +   . . -.<.  X             + ; ) F   X                                                       ",
"                                                    - *.W X   +               + @.E     . X                                                   ",
"                                                +   o $.<.  X                   % R         .                                                 ",
"                                                X   q E                         & L X       .                                                 ",
"                                                  % @.R X +   .                   t a #                                                       ",
"                                                      .   +                     .         . X                                                 "
};
