/* XPM */
static char *result[] = {
/* columns rows colors chars-per-pixel */
"42 64 8 1 ",
"  c black",
". c #222034",
"X c #323C39",
"o c #306082",
"O c #639BFF",
"+ c #5FCDE4",
"@ c white",
"# c None",
/* pixels */
"############......########################",
"##########..XooX..  ######################",
"#########.X+OoXXXX.. #####################",
"#########.@OX... XXX. ####################",
"########.X+X.#### .XX. ###################",
"########.O+.###### XXX. ##################",
"########.OO.#######.XXX ##################",
"########.XO.#######.oXX.##################",
"#########.X.######.XoXX.##################",
"#########.X.#####.XOoX.####.....##########",
"#########.X.####..oo..####.X+OOX #########",
"#########.X.###.o++X.####.X@XX.XX ########",
"#########.X.##.O+@X.#####.OO....XX #######",
"#########.O.#.X++XX.####..O...XX... ## ###",
"##########..#.XOoXX.......X..o.  .. ## .##",
"##########..#.XoXX.XXX..XX..X.# ..X.## .##",
"##########.##.XoX.XOOoXX..XXX # .XX.## X.#",
"#########.#### XX.O@+OooX..X. # Xo.### ..#",
"##..######...  .XXO++OOoXX.XX # XX.### ..#",
"###.#####.XXXX  .XXOOO+@OX.Xo.## XX.  XX.#",
"###..###.O+OoXXX .XXoXXO+OXXo. ## XXXXo.##",
"##...##.o+oXXXX. oXXX..Xo...X .### ....###",
"#.OX.##.@oX...  oOo..X  .XX.  X ##########",
"#.X.###.@o.X..X.+XXXOoooXOXX  X  #########",
".X+.###.+XX.XXX.OXXXO+oXX+Xo. X  ###   ###",
".OX.##.Oo..XOoXX.oX.XooXXXXo.  . ## ##   #",
".oX #.XoX..o+oXX. o.XXXXX Xo. ... #### X  ",
" .X..XoX..X@OX..X.XX.XX.    .  .X #####.. ",
"# .XXX..#.o@X.X. X.X.XX.    .  .X ##### X.",
"# .XXX #.X+OXX  .X X .X.   .X. .X. ### XX.",
"##    ##.X+XX.#..X .. X.   .XX  .X.   Xo.#",
"########.XOXX.##.XX.  .X.  .XX # .XXXXX.##",
"########.XOXX ##.XX.. ..XXX.XX ##  ....###",
"########..XXX. ..oX.   .XX.XX. ###########",
"######### XXXX.   ...##  .XXX.  ##########",
"########## .XXXXX.  .## .XXo. ..##########",
"########### ...XXXX. ##..XoX...X.#########",
"#############    XXX. #.XXo. .XX.#########",
"##############.Xo .XX...XX.# XX.##########",
"#############.X+X. ..X..XX. .X.###########",
"############.X@O... .X.XX.# ..###....#####",
"############.+OX..## X.XX.# .X...X.#######",
"###########.X+X..### ..XX.##.XXoo.########",
"###########.OoX.#### ...X.###....#########",
"###########.OX..####.X..X. ###############",
"###########.OX.#####.X..XX ###############",
"###########.oX.####.XX ..X. ##############",
"###########.oX.####XX.##.XX ##############",
"############.XX #..X.###..X ##############",
"############.XX. .X.#####.X. #############",
"############# XX. .######..X.#############",
"############## XX..####### X.#############",
"##############. XX.###### XX.#############",
"#############..  XX.##### XX.#############",
"#############. #  X.##### o.##############",
"############# ### X.#### Xo.##############",
"############# ### X.#### X.###############",
"################# X.#### X.###############",
"################# ..#### X.###############",
"################## .##### .###############",
"##################..##### .###############",
"##################.#######.###############",
"##################.#######.###############",
"##########################.###############"
};
