/* XPM */
static char *result[] = {
/* columns rows colors chars-per-pixel */
"42 62 8 1 ",
"  c black",
". c #222034",
"X c #323C39",
"o c #306082",
"O c #639BFF",
"+ c #5FCDE4",
"@ c white",
"# c None",
/* pixels */
"############......########################",
"##########..XooX..  ######################",
"#########.X+OoXXXX.. #####################",
"#########.@OX... XXX. ####################",
"########.X+X.#### .XX. ###################",
"########.O+.###### XXX. ##################",
"########.OO.#######.XXX ##################",
"########.XO.#######.oXX.##################",
"#########.X.######.XoXX.##################",
"#########..X.###..XOoX.####.....##########",
"##########.X.##.o++o..####.X+OOX  ########",
"##########.X.#.O+@XX.####.X@XX.XX. #######",
"#########.O.#.X++XX.#####.OO....XX. # ####",
"#########.X.#.XOoXX.####..O...XX... # .###",
"#########..##.XoXXX.......X..o.  .X.# .###",
"#########.###.XoXX.XXX..XX..X.# ..X.# X.##",
"#########.#### XX.XOOoXX..XXX # .XX### ..#",
"##########...  .XXO@+OooX..X. # Xo.### ..#",
"#########.XXXX  .XO++OOoXX.XX # XXX.  XX.#",
"###..###.O+OoXXX .XOOO+@OX.Xo.## XXXXXo.##",
"####..#.o+oXXXX. XXXoXXO+OXXo. ##  ....###",
"##....#.@oX...  oOoXX..Xo...X .###########",
"#.XOX.#.@o.X..X.+XX..X  .XX.  X ##########",
".X+..##.+XX.XXX.OXXXOoooXOXX  X  #########",
".OX###.Oo..XOoXX.oXXO+oXX+Xo. X  #####   #",
".oX #.XoX..o+oXX. o.XooXXXXo.  . ## #  X  ",
" .X..XoX..X@OX..X.X.XXXXX Xo. ... #   #.. ",
"# .XXX..#.o@X.X. X.X.XX.    .  .X ##### X.",
"##     #.X+OXX  .X X .X.   .X. .X. ### XX.",
"########.X+XX.#..X .. X.   .XX  .X.   Xo.#",
"########.XOXX.##.XX.  .X.  .XX # .XXXXX.##",
"########.XOXX ##.XX.. ..XXX.XX ##  ....###",
"########..XXX. ..oX.   .XX.XX. ###########",
"######### XXXX.   ...##  .XXX.  ##########",
"########## .XXXXX.  .## .XXo. ..##########",
"########### ...XXXX. ##..XoX...X.#########",
"#############    XXX. #.XXo. .XX.#########",
"##############.Xo .XX...XX.# XX.##########",
"#############.X+X. ..X..XX. .X.##....#####",
"############.X@O... .X.XX.# ..##.X.#######",
"############.+OX..## X.XX.# .X..o.########",
"###########.X+X..### ..XX.##.XXo.#########",
"###########.OoX.#### ...X.###...##########",
"###########.OX..####.X..X. ###############",
"###########.OX.#####.X..XX ###############",
"###########.oX.####.XX ..X. ##############",
"############.XX #..XX.##.XX ##############",
"############.XX. .XX.###..X ##############",
"############# XX. ..#####.X. #############",
"############## XX..######..X.#############",
"##############. XX..###### X.#############",
"#############..  XX.##### XX.#############",
"#############. #  X.##### o.##############",
"############# ### X.#### Xo.##############",
"############# ### X.#### X.###############",
"################# X.#### X.###############",
"################# ..#### X.###############",
"################# .##### .################",
"#################..##### .################",
"#################.#######.################",
"#################.#######.################",
"#########################.################"
};
