/* XPM */
static char *result[] = {
/* columns rows colors chars-per-pixel */
"42 62 8 1 ",
"  c black",
". c #222034",
"X c #323C39",
"o c #306082",
"O c #639BFF",
"+ c #5FCDE4",
"@ c white",
"# c None",
/* pixels */
"########################......############",
"######################  ..XooX..##########",
"##################### ..XXXXoO+X.#########",
"#################### .XXX ...XO@.#########",
"################### .XX. ####.X+X.########",
"################## .XXX ######.+O.########",
"################## XXX.#######.OO.########",
"##################.XXo.#######.OX.########",
"##################.XXoX.######.X.#########",
"##########.....####.XoOX..###.X..#########",
"########  XOO+X.####..o++o.##.X.##########",
"####### .XX.XX@X.####.XX@+O.#.X.##########",
"#### # .XX....OO.#####.XX++X.#.O.#########",
"###. # ...XX...O..####.XXoOX.#.X.#########",
"###. #.X.  .o..X.......XXXoX.##..#########",
"##.X #.X.. #.X..XX..XXX.XXoX.###.#########",
"#.. ###XX. # XXX..XXoOOX.XX ####.#########",
"#.. ###.oX # .X..XooO+@OXX.  ...##########",
"#.XX  .XXX # XX.XXoOO++OX.  XXXX.#########",
"##.oXXXXX ##.oX.XO@+OOOX. XXXoO+O.###..###",
"###....  ## .oXXO+OXXoXXX .XXXXo+o.#..####",
"###########. X...oX..XXoOo  ...Xo@.#....##",
"########## X  .XX.  X..XX+.X..X.o@.#.XOX.#",
"#########  X  XXOXoooOXXXO.XXX.XX+.##..+X.",
"#   #####  X .oX+XXo+OXXo.XXoOX..oO.###XO.",
"  X  # ## .  .oXXXXooX.o .XXo+o..XoX.# Xo.",
" ..#   # ... .oX XXXXX.X.X..XO@X..XoX..X. ",
".X ##### X.  .    .XX.X.X .X.X@o.#..XXX. #",
".XX ### .X. .X.   .X. X X.  XXO+X.#     ##",
"#.oX   .X.  XX.   .X .. X..#.XX+X.########",
"##.XXXXX. # XX.  .X.  .XX.##.XXOX.########",
"###....  ## XX.XXX.. ..XX.## XXOX.########",
"########### .XX.XX.   .Xo.. .XXX..########",
"##########  .XXX.  ##...   .XXXX #########",
"##########.. .oXX. ##.  .XXXXX. ##########",
"#########.X...XoX..## .XXXX... ###########",
"#########.XX. .oXX.# .XXX    #############",
"##########.XX #.XX...XX. oX.##############",
"#####....##.X. .XX..X.. .X+X.#############",
"#######.X.##.. #.XX.X. ...O@X.############",
"########.o..X. #.XX.X ##..XO+.############",
"#########.oXX.##.XX.. ###..X+X.###########",
"##########...###.X... ####.XoO.###########",
"############### .X..X.####..XO.###########",
"############### XX..X.#####.XO.###########",
"############## .X.. XX.####.Xo.###########",
"############## XX.##.XX..# XX.############",
"############## X..###.XX. .XX.############",
"############# .X.#####.. .XX #############",
"#############.X..######..XX ##############",
"#############.X ######..XX .##############",
"#############.XX #####.XX  ..#############",
"##############.o #####.X  # .#############",
"##############.oX ####.X ### #############",
"###############.X ####.X ### #############",
"###############.X ####.X #################",
"###############.X ####.. #################",
"################. #####. #################",
"################. #####..#################",
"################.#######.#################",
"################.#######.#################",
"################.#########################"
};
