/* XPM */
static char *result[] = {
/* columns rows colors chars-per-pixel */
"41 58 8 1 ",
"  c black",
". c #222034",
"X c #323C39",
"o c #306082",
"O c #639BFF",
"+ c #5FCDE4",
"@ c white",
"# c None",
/* pixels */
"#########################......##########",
"########################.X+OOoX  ########",
"#######################..+XX.oXX. ### ###",
"#######################.XO.....XX. ## .##",
"############......#####.O...XXX....## .##",
"#########   XoOO+X####.XX..o.  ..X.## X.#",
"##### ## ..XXo.XX+.###.oO.X.. ...X.### ..",
"####. ## .XX.....OX.##.Xo+X.## .XX#### ..",
"####o ##....XXX...O.#...XX..## Xo.##  XX.",
"###.o ##.X..  .o..X.#.......## Xoo.  oo.#",
"##.. ###.X... #.X...........### XoXXX..##",
"##.. ####XX. ##.X..XXXoo...#####  ....###",
"##.XO  ##.oX ##. .XXo++@+o.##############",
"###.oo  .ooX ##..XXoO+@+OOo.#############",
"####..+OXoX ### .XooOOOOOOo.#############",
"####.....  #### .XXooO++OoX.   ..########",
"#############   XXXoO+@+oXX..XXXX.#######",
"############# o.X....ooX..Xo+.XXoO.##..##",
"############  XX..  ...  ..XO...X+o.#.###",
"########### . .XoXXX.XooooXXo..X.o+.#...#",
"#   ###### ... XoXo.XoOXO+oX.XX.XX+.#XOX.",
" oo  # ### .X. .XXX..X+XooXX XoX..oO.##+X",
" ..#   ## .XX.   X. .Xo oX. ..oo..XoX# XX",
".X ###### XX.. . ...   .XX ...X+X..Xo..X.",
".XX #### .X.  .. ..     .X ..X.+o.#..XX. ",
"#.oo    .X. # X.. .     . ..  XO+X.#    #",
"##.XO+Ooo. ## XX. ..   .. ...#.X+X.######",
"###.....  ### XX.. .XX.. .X.##.XOX.######",
"############# .XX. ..XX. Xo.. .XX..######",
"############  .XX..  .. ..   .XXX #######",
"########### .. .oX.. ##.  .XXXX. ########",
"########### ....XoX..## .XXXX.. #########",
"###########X.X...oXX.# .XXX    ##########",
"############oXX #.Xo...XX. oX.###########",
"############.XX #.Xo..X.. .X+X.##########",
"############.XX ##.Xo.X. ...OoX##########",
"############.XX.##.XO.X ##..XOX##########",
"###########..oX.##.oO.. ###..Xo.#########",
"##########.Xoo.###.o... ####.Xo.#########",
"##########.X..### .X..X.####..X.#########",
"##########..##### oX..X.#####.X.#########",
"#########..######.o.. XX.####XX##########",
"#########.###### XX.##.XX..#.XX##########",
"################ X..###.XX. XX ##########",
"################ X.#####.. XX ###########",
"############### ...######..X .###########",
"###############.X ######..X  ..##########",
"###############.XX #####.X  # .##########",
"###############.XX #####.X ### ##########",
"################.oX ####.X ### ##########",
"################.oX ####.X ##############",
"#################.X ####.. ##############",
"#################.X ####.. ##############",
"#################.. #####..##############",
"##################. ######.##############",
"##################.#######.##############",
"##################.######################",
"##################.######################"
};
